<?xml version="1.0" encoding="UTF-8"?>
<svg width="17px" height="11px" viewBox="0 0 17 11" version="1.1" xmlns="http://www.w3.org/2000/svg" xmlns:xlink="http://www.w3.org/1999/xlink">
    <title>356080B5-C872-45A3-9E3B-6F9D4C48EEBF</title>
    <g id="Page-1" stroke="none" stroke-width="1" fill="none" fill-rule="evenodd">
        <g id="News-Details" transform="translate(-200.000000, -142.000000)" fill="#F8AE00" fill-rule="nonzero">
            <g id="Group" transform="translate(200.000000, 139.000000)">
                <path d="M8.49961495,0.000717538777 C8.68612432,-0.00674092022 8.88808668,0.0444328284 9.07038847,0.131508224 C9.08741937,0.140145456 9.10505568,0.148650165 9.12251455,0.157555651 C9.13286859,0.163113941 9.14296293,0.168577987 9.15297562,0.174147605 C9.25833122,0.230852691 9.3568354,0.303169279 9.44470395,0.390442294 C9.61636081,0.56093574 9.78801359,0.731425138 9.9596623,0.901910487 C10.7042383,1.64144013 11.4487736,2.38092929 12.1933497,3.12045894 C12.6637134,3.58763471 13.136319,4.05703724 13.6066827,4.52421301 C13.863045,4.77887421 13.9834216,5.11097428 13.9990261,5.46301809 C14.0146383,5.81727651 13.8407517,6.14941302 13.6066827,6.40182316 C13.3815082,6.64758943 12.9891688,6.79150743 12.6614714,6.79150743 C12.3181658,6.79150743 11.959244,6.64316019 11.7162601,6.40182316 C11.5446033,6.23132971 11.3729505,6.06084031 11.2013018,5.89035496 L11.2013018,5.89035496 L9.837,4.535 L9.83716963,15.6707931 C9.83716963,15.9782605 9.72579793,16.2580529 9.54236551,16.4948522 L9.44482624,16.6095982 C9.20403949,16.8708628 8.84514617,16.9837838 8.49961495,16.9992825 C8.16743767,17.0125661 7.78624294,16.8398662 7.55440366,16.6095982 C7.31141979,16.3682571 7.16206027,16.0117679 7.16206027,15.6707931 L7.16206027,15.6707931 L7.16206027,15.6442237 C7.15983102,15.4449645 7.16206027,15.2434826 7.16206027,15.0442112 L7.16206027,15.0442112 L7.162,4.537 L6.69825942,4.99806908 C6.46307758,5.23165697 6.22733525,5.46580154 5.99159291,5.69994612 L5.28496717,6.40181101 C5.02860898,6.65422115 4.6942305,6.77377426 4.33755468,6.78928066 C3.98087887,6.80478706 3.64647593,6.63207899 3.3923434,6.39959639 C3.14490006,6.17594798 3,5.78626777 3,5.46079132 C3,5.11981252 3.14935953,4.76332328 3.3923434,4.52198625 C3.56400025,4.3514928 3.73565304,4.1810034 3.90730175,4.01051805 C4.65183703,3.27321517 5.39641308,2.53372601 6.13874716,1.79419637 L6.13874716,1.79419637 L7.55208017,0.390442294 C7.56070531,0.381875616 7.56943139,0.37345368 7.57825502,0.365176455 C7.81878735,0.121813635 8.16544988,0.0157064179 8.49961495,0.000717538777 Z" id="Back" transform="translate(8.500000, 8.500000) rotate(-90.000000) translate(-8.500000, -8.500000) "></path>
            </g>
        </g>
    </g>
</svg>