<?xml version="1.0" encoding="UTF-8"?>
<svg width="14px" height="9px" viewBox="0 0 14 9" version="1.1" xmlns="http://www.w3.org/2000/svg" xmlns:xlink="http://www.w3.org/1999/xlink">
    <title>E21C12F9-B2A0-4983-93AA-0EEE923A6ACA</title>
    <g id="Page-1" stroke="none" stroke-width="1" fill="none" fill-rule="evenodd">
        <g id="Home-Page---1" transform="translate(-1556.000000, -45.000000)" fill="#F8AE00" fill-rule="nonzero">
            <g id="Group-2" transform="translate(1499.000000, 42.000000)">
                <path d="M63.8743261,3.00696961 C63.5990003,3.03868164 63.338642,3.17155843 63.1291055,3.38706349 L57.5019094,9.14987305 C57.2187313,9.42098808 57.0398573,9.81785585 57.0058453,10.2494949 C56.9720137,10.6811796 57.0860328,11.1106004 57.3221071,11.4400181 C57.5579948,11.7694187 57.8957366,11.9704081 58.2578199,11.9969868 C58.620061,12.0235621 58.9757659,11.8734866 59.2437754,11.5809383 L64,6.70844849 L68.756225,11.5809383 C69.0242632,11.8732694 69.3799537,12.0233425 69.7421805,11.9967639 C70.1042351,11.9704116 70.4419913,11.7694187 70.6778933,11.4400181 C70.9139675,11.1106175 71.0279853,10.6809624 70.9941551,10.2492662 C70.9601364,9.81758143 70.7812595,9.42097665 70.498091,9.14987305 L64.8708949,3.38706349 C64.595569,3.10411412 64.2359213,2.96699012 63.8744601,3.00674665 L63.8743261,3.00696961 Z" id="Drop-down-arrow" transform="translate(64.000000, 7.500000) rotate(-180.000000) translate(-64.000000, -7.500000) "></path>
            </g>
        </g>
    </g>
</svg>