<?xml version="1.0" encoding="UTF-8"?>
<svg width="38px" height="29px" viewBox="0 0 38 29" version="1.1" xmlns="http://www.w3.org/2000/svg" xmlns:xlink="http://www.w3.org/1999/xlink">
    <title>DED2EC59-121B-4C6E-90C1-829EC33214F5</title>
    <g id="Page-1" stroke="none" stroke-width="1" fill="none" fill-rule="evenodd">
        <g id="Stores-Detail-Page" transform="translate(-927.000000, -585.000000)" fill="#F8AE00">
            <path d="M945.095131,600.951269 C945.40776,601.250737 945.698887,601.396381 945.985182,601.396381 C946.271396,601.396381 946.562765,601.250737 946.875797,600.951269 L960.492163,587.926408 L931.493261,587.926408 L945.095131,600.951269 Z M929.823005,609.732746 C929.823005,610.497441 930.379328,611.074093 931.117252,611.074093 L960.882184,611.074093 C961.620028,611.074093 962.176511,610.497441 962.176511,609.732746 L962.176511,590.298032 L948.801906,603.100462 C948.039983,603.829435 947.039521,604.230895 945.98486,604.230895 L945.984538,604.230895 C944.929877,604.230812 943.93014,603.829351 943.169505,603.100462 L929.823005,590.298032 L929.823005,609.732746 Z M931.117413,614 C928.847106,614 927,612.085674 927,609.732663 L927,589.267337 C927,586.914326 928.847106,585 931.117413,585 L960.882507,585 C963.152894,585 965,586.914326 965,589.267337 L965,609.732663 C965,612.085674 963.152894,614 960.882507,614 L931.117413,614 Z" id="Email"></path>
        </g>
    </g>
</svg>