<?xml version="1.0" encoding="UTF-8"?>
<svg width="31px" height="31px" viewBox="0 0 31 31" version="1.1" xmlns="http://www.w3.org/2000/svg" xmlns:xlink="http://www.w3.org/1999/xlink">
    <!-- Generator: sketchtool 53 (72520) - https://sketchapp.com -->
    <title>03F1B042-C77B-4EFB-BA8C-8238DEF95290</title>
    <desc>Created with sketchtool.</desc>
    <g id="Page-1" stroke="none" stroke-width="1" fill="none" fill-rule="evenodd">
        <g id="Home-Page---V2" transform="translate(-1255.000000, -4592.000000)">
            <g id="Group-3" transform="translate(1255.000000, 4592.000000)">
                <circle id="Oval-Copy-2" fill="#F8AE00" cx="15.5" cy="15.5" r="15.5"></circle>
                <path d="M15.5,11.078629 C17.8991935,11.078629 19.8870968,13.0665323 19.8870968,15.4657258 C19.8870968,17.8649194 17.9334677,19.8528226 15.5,19.8528226 C13.0665323,19.8528226 11.1129032,17.8991935 11.1129032,15.4657258 C11.1129032,13.0322581 13.1008065,11.078629 15.5,11.078629 Z M15.5,18.2762097 C17.0423387,18.2762097 18.3104839,17.0080645 18.3104839,15.4657258 C18.3104839,13.9233871 17.0423387,12.6552419 15.5,12.6552419 C13.9576613,12.6552419 12.6895161,13.9233871 12.6895161,15.4657258 C12.6895161,17.0080645 13.9576613,18.2762097 15.5,18.2762097 Z M20.0584677,11.9697581 C19.5095234,11.9697581 19.0645161,11.5247508 19.0645161,10.9758065 C19.0645161,10.4268621 19.5095234,9.98185484 20.0584677,9.98185484 C20.6074121,9.98185484 21.0524194,10.4268621 21.0524194,10.9758065 C21.0524194,11.5247508 20.6074121,11.9697581 20.0584677,11.9697581 Z M22.6290323,8.40524194 C23.5201613,9.29637097 24,10.5302419 24,11.9697581 L24,19.0302419 C24,20.5040323 23.5201613,21.7721774 22.5947581,22.6633065 C21.703629,23.5201613 20.4697581,24 18.9959677,24 L12.0040323,24 C10.5987903,24 9.36491935,23.5544355 8.43951613,22.6633065 C7.47983871,21.7379032 7,20.4697581 7,18.9959677 L7,11.9697581 C7,8.98790323 8.98790323,7 11.9697581,7 L19.0302419,7 C20.4697581,7 21.7379032,7.47983871 22.6290323,8.40524194 Z M22.4919355,19.0302419 L22.4919355,11.9697581 C22.4919355,10.9758065 22.1491935,10.1189516 21.5665323,9.50201613 C20.9495968,8.88508065 20.0927419,8.5766129 19.0645161,8.5766129 L12.0040323,8.5766129 C10.9758065,8.5766129 10.0846774,8.88508065 9.50201613,9.46774194 C8.88508065,10.0846774 8.5766129,10.9415323 8.5766129,11.9697581 L8.5766129,18.9959677 C8.5766129,20.0584677 8.88508065,20.9153226 9.50201613,21.5322581 C10.1189516,22.1149194 10.9758065,22.4233871 12.0040323,22.4233871 L18.9959677,22.4233871 C20.0241935,22.4233871 20.8810484,22.1149194 21.4979839,21.5322581 C22.1149194,20.9495968 22.4919355,20.0927419 22.4919355,19.0302419 Z" id="Combined-Shape" fill="#FFFFFF" fill-rule="nonzero"></path>
            </g>
        </g>
    </g>
</svg>