<?xml version="1.0" encoding="UTF-8"?>
<svg width="20px" height="20px" viewBox="0 0 20 20" version="1.1" xmlns="http://www.w3.org/2000/svg" xmlns:xlink="http://www.w3.org/1999/xlink">
    <title>15AC05F5-C419-4ECE-8B1E-E518994C49A8</title>
    <g id="Page-1" stroke="none" stroke-width="1" fill="none" fill-rule="evenodd">
        <g id="Stores-Detail-Page" transform="translate(-721.000000, -1148.000000)" fill="#FFFFFF">
            <g id="Group-4" transform="translate(479.000000, 1138.000000)">
                <g id="Group-2" transform="translate(212.000000, 0.000000)">
                    <path d="M40.0005558,10 L40.160618,10.0055574 L40.2851109,10.0188952 C45.6149614,10.1300433 50,14.6115372 50,20 C50,25.5140602 45.5149225,30 40.0005558,30 L39.9994442,30 C34.4861891,30 30.0011115,25.5140602 30,20 C30,14.4859398 34.4850775,10 40.0005558,10 Z M40.1039293,11.7116817 C39.4381148,11.7350228 38.904574,12.2840947 38.904574,12.9620985 C38.904574,13.65344 39.467015,14.2169612 40.160618,14.2169612 C40.596343,14.2169612 40.9942756,13.9968879 41.2254766,13.627876 C41.3822042,13.3777926 41.6534208,13.2277426 41.9490913,13.2277426 C42.108042,13.2277426 42.2647696,13.2733133 42.4003779,13.3577859 C42.8005335,13.6100923 42.9205802,14.138046 42.670483,14.5348449 C42.1247152,15.405135 41.1865726,15.924197 40.160618,15.924197 C38.5277608,15.924197 37.1983549,14.594865 37.1983549,12.9620985 C37.1983549,12.6931199 37.2383705,12.4241414 37.3128439,12.1629432 C33.9782137,13.3011004 31.7062191,16.4288096 31.7062191,20 C31.7062191,24.5726353 35.4276663,28.2938757 39.9994442,28.2938757 C44.5723337,28.2938757 48.2937809,24.5726353 48.2937809,20 C48.2937809,15.4851617 44.6190185,11.7683672 40.1039293,11.7116817 Z M44.1142667,22.1564966 C44.2632135,22.1564966 44.4110487,22.1953985 44.5410993,22.2709792 C44.9468126,22.5066133 45.0868671,23.0290097 44.853443,23.4358119 C43.853054,25.1630544 41.995665,26.2345226 40.0037792,26.2345226 C38.010782,26.2345226 36.153393,25.1630544 35.155227,23.4369234 C35.0396265,23.2413027 35.0107264,23.0101145 35.0696382,22.7900411 C35.1274384,22.5688563 35.2686045,22.3854618 35.4664592,22.2720907 C35.5953982,22.1965099 35.7432335,22.1576081 35.8932918,22.1576081 C36.1967432,22.1576081 36.4801867,22.3209959 36.6324682,22.5821941 C37.3260712,23.7814827 38.6187962,24.5283984 40.0037792,24.5283984 C41.3887623,24.5283984 42.6803757,23.7814827 43.3739788,22.5821941 C43.5262602,22.3198844 43.8097038,22.1564966 44.1142667,22.1564966 Z M36.5,17 C37.3284271,17 38,17.6715729 38,18.5 C38,19.3284271 37.3284271,20 36.5,20 C35.6715729,20 35,19.3284271 35,18.5 C35,17.6715729 35.6715729,17 36.5,17 Z M43.5,17 C44.3284271,17 45,17.6715729 45,18.5 C45,19.3284271 44.3284271,20 43.5,20 C42.6715729,20 42,19.3284271 42,18.5 C42,17.6715729 42.6715729,17 43.5,17 Z" id="Kids-Menu"></path>
                </g>
            </g>
        </g>
    </g>
</svg>