<?xml version="1.0" encoding="UTF-8"?>
<svg width="18px" height="16px" viewBox="0 0 18 16" version="1.1" xmlns="http://www.w3.org/2000/svg" xmlns:xlink="http://www.w3.org/1999/xlink">
    <title>96825B15-1254-41DC-8076-99E2FEEC466B</title>
    <g id="Page-1" stroke="none" stroke-width="1" fill="none" fill-rule="evenodd">
        <g id="News-Details" transform="translate(-1079.000000, -841.000000)" fill="#FFFFFF" fill-rule="nonzero">
            <g id="Group-3" transform="translate(1016.000000, 797.000000)">
                <path d="M76.5570723,48.9506442 C79.0965639,48.9506442 80.999785,50.4933576 81,53.8092777 L81,60 L77.142166,60 L77.142166,54.2241928 C77.142166,52.7734236 76.5836642,51.7830414 75.1874813,51.7830414 C74.1212962,51.7830414 73.4869609,52.4503192 73.207495,53.0956612 C73.1057146,53.3266214 73.0796961,53.6474589 73.0796961,53.9707633 L73.0796961,59.9998 L69.2213603,59.9998 L69.2218631,59.9020292 C69.2250021,59.2841181 69.2418447,55.8560614 69.2440049,53.0287321 L69.2441725,52.1743472 C69.2441318,52.0823976 69.2440701,51.9915818 69.2439863,51.9020398 L69.2432088,51.3811908 C69.240909,50.2906495 69.2344785,49.462636 69.2213603,49.2044072 L73.0794811,49.2044072 L73.0794811,50.7344524 C73.591895,50.0000333 74.5077749,48.9506442 76.5570723,48.9506442 Z M67.0869115,49.2044072 L67.0869115,59.9998 L63.2291492,59.9998 L63.2291492,49.2044072 L67.0869115,49.2044072 Z M65.1836188,44 C66.5039681,44 67.315774,44.8056273 67.3412191,45.8648176 C67.3412907,46.9014052 66.5040398,47.7311686 65.1587471,47.7311686 L65.1327286,47.7311686 C63.8383978,47.7311686 63,46.9014052 63,45.8648176 C63,44.8056273 63.8638429,44 65.1836188,44 Z" id="LinkedIn"></path>
            </g>
        </g>
    </g>
</svg>