<?xml version="1.0" encoding="UTF-8"?>
<svg width="11px" height="17px" viewBox="0 0 11 17" version="1.1" xmlns="http://www.w3.org/2000/svg" xmlns:xlink="http://www.w3.org/1999/xlink">
    <title>A1707420-88D0-4EFB-8458-A26AB71F861E</title>
    <g id="Page-1" stroke="none" stroke-width="1" fill="none" fill-rule="evenodd">
        <g id="News" transform="translate(-744.000000, -2281.000000)" fill="#F8AE00" fill-rule="nonzero">
            <path d="M749.499615,2281.00072 C749.686124,2280.99326 749.888087,2281.04443 750.070388,2281.13151 C750.087419,2281.14015 750.105056,2281.14865 750.122515,2281.15756 C750.132869,2281.16311 750.142963,2281.16858 750.152976,2281.17415 C750.258331,2281.23085 750.356835,2281.30317 750.444704,2281.39044 C750.616361,2281.56094 750.788014,2281.73143 750.959662,2281.90191 C751.704238,2282.64144 752.448774,2283.38093 753.19335,2284.12046 C753.663713,2284.58763 754.136319,2285.05704 754.606683,2285.52421 C754.863045,2285.77887 754.983422,2286.11097 754.999026,2286.46302 C755.014638,2286.81728 754.840752,2287.14941 754.606683,2287.40182 C754.381508,2287.64759 753.989169,2287.79151 753.661471,2287.79151 C753.318166,2287.79151 752.959244,2287.64316 752.71626,2287.40182 C752.544603,2287.23133 752.37295,2287.06084 752.201302,2286.89035 L752.201302,2286.89035 L750.837,2285.535 L750.83717,2296.67079 C750.83717,2296.97826 750.725798,2297.25805 750.542366,2297.49485 L750.444826,2297.6096 C750.204039,2297.87086 749.845146,2297.98378 749.499615,2297.99928 C749.167438,2298.01257 748.786243,2297.83987 748.554404,2297.6096 C748.31142,2297.36826 748.16206,2297.01177 748.16206,2296.67079 L748.16206,2296.67079 L748.16206,2296.64422 C748.159831,2296.44496 748.16206,2296.24348 748.16206,2296.04421 L748.16206,2296.04421 L748.162,2285.537 L747.698259,2285.99807 C747.463078,2286.23166 747.227335,2286.4658 746.991593,2286.69995 L746.284967,2287.40181 C746.028609,2287.65422 745.69423,2287.77377 745.337555,2287.78928 C744.980879,2287.80479 744.646476,2287.63208 744.392343,2287.3996 C744.1449,2287.17595 744,2286.78627 744,2286.46079 C744,2286.11981 744.14936,2285.76332 744.392343,2285.52199 C744.564,2285.35149 744.735653,2285.181 744.907302,2285.01052 C745.651837,2284.27322 746.396413,2283.53373 747.138747,2282.7942 L747.138747,2282.7942 L748.55208,2281.39044 C748.560705,2281.38188 748.569431,2281.37345 748.578255,2281.36518 C748.818787,2281.12181 749.16545,2281.01571 749.499615,2281.00072 Z" id="Load-More" transform="translate(749.500000, 2289.500000) rotate(-180.000000) translate(-749.500000, -2289.500000) "></path>
        </g>
    </g>
</svg>