<?xml version="1.0" encoding="UTF-8"?>
<svg width="26px" height="34px" viewBox="0 0 26 34" version="1.1" xmlns="http://www.w3.org/2000/svg" xmlns:xlink="http://www.w3.org/1999/xlink">
    <title>16923B43-E86C-404C-8A12-D9D15FBBB40D</title>
    <g id="Page-1" stroke="none" stroke-width="1" fill="none" fill-rule="evenodd">
        <g id="Stores-Detail-Page" transform="translate(-642.000000, -582.000000)" fill="#F8AE00">
            <path d="M648.500084,583.681754 C652.522863,581.439415 657.477724,581.439415 661.499916,583.681754 C665.522025,585.924011 668,590.06748 668,594.551751 C668,602.782914 656.570041,615.0226 656.085932,615.532671 C655.80858,615.829275 655.414184,615.999029 655.000252,616 L655.000252,616 C654.585816,615.999029 654.191503,615.829275 653.914068,615.532671 C653.429456,615.022681 642,602.796594 642,594.551751 C642,590.067318 644.477891,585.923606 648.500084,583.681754 Z M655.000419,584.833927 C652.332205,584.837732 649.774327,585.862893 647.887528,587.684611 C646.000729,589.506005 644.938943,591.975977 644.935002,594.552156 C644.935002,600.417044 652.197805,609.214701 655.000335,612.416306 C657.802782,609.213972 665.065668,600.346132 665.065668,594.552156 C665.061728,591.975977 663.999942,589.506005 662.113143,587.684611 C660.226343,585.862893 657.668466,584.837732 655.000252,584.833927 Z M654.867271,592.2852 C655.535007,592.2852 656.175248,592.541877 656.647361,592.998707 C657.119542,593.455536 657.384741,594.07505 657.384741,594.721168 C657.384741,595.367091 657.119542,595.986799 656.647361,596.443629 C656.175248,596.900458 655.535007,597.157136 654.867271,597.157136 C654.200544,597.154079 653.561917,596.896425 653.090543,596.440311 C652.618899,595.984197 652.352894,595.366245 652.349735,594.721103 C652.349802,594.074985 652.615,593.455536 653.087181,592.998707 C653.559362,592.541877 654.199536,592.2852 654.867271,592.2852 Z" id="Location"></path>
        </g>
    </g>
</svg>