<?xml version="1.0" encoding="UTF-8"?>
<svg width="16px" height="13px" viewBox="0 0 16 13" version="1.1" xmlns="http://www.w3.org/2000/svg" xmlns:xlink="http://www.w3.org/1999/xlink">
    <title>FBC35012-3F42-4514-90DC-6A757F4BE7D1</title>
    <g id="Page-1" stroke="none" stroke-width="1" fill="none" fill-rule="evenodd">
        <g id="Contact-us" transform="translate(-231.000000, -1153.000000)" fill="#F8AE00" fill-rule="nonzero">
            <path d="M232.170776,1153 C232.017387,1153 231.87189,1153.03179 231.737818,1153.08411 L238.530442,1158.78123 C238.827693,1159.03087 239.159252,1159.03101 239.457333,1158.78123 L246.25588,1153.07827 C246.123856,1153.0277 245.979722,1153.0002 245.829054,1153.0002 L232.170776,1153 Z M231.012249,1153.98554 C231.004355,1154.04001 231,1154.09702 231,1154.15376 L231,1164.84608 C231,1165.48527 231.522086,1166 232.170791,1166 L245.829209,1166 C246.47774,1166 247,1165.48544 247,1164.84608 L247,1154.15376 C247,1154.09702 246.995781,1154.04001 246.987751,1153.98554 L240.219517,1159.65863 C239.517885,1160.24672 238.469881,1160.24765 237.768249,1159.65863 L231.012249,1153.98554 Z" id="Mail"></path>
        </g>
    </g>
</svg>