<?xml version="1.0" encoding="UTF-8"?>
<svg width="18px" height="12px" viewBox="0 0 18 12" version="1.1" xmlns="http://www.w3.org/2000/svg" xmlns:xlink="http://www.w3.org/1999/xlink">
    <title>0BF4CE6E-4F3E-43B7-991E-FE27120AE286</title>
    <g id="Page-1" stroke="none" stroke-width="1" fill="none" fill-rule="evenodd">
        <g id="News-Details" transform="translate(-1185.000000, -843.000000)" fill="#FFFFFF" fill-rule="nonzero">
            <g id="Group-3" transform="translate(1016.000000, 797.000000)">
                <path d="M170.350051,46 C170.173174,46 170.005398,46.0381503 169.850796,46.1009287 L177.486665,52.9444797 C177.816721,53.240186 178.168289,53.2405075 178.499116,52.9444797 L186.149048,46.1009287 C185.994611,46.0379904 185.826682,46 185.649793,46 L170.34993,46 L170.350051,46 Z M169.014125,47.1899051 C169.005493,47.2528433 169,47.3190041 169,47.384522 L169,56.6153008 C169,57.3823208 169.60203,58 170.350068,58 L185.649932,58 C186.397769,58 187,57.3825268 187,56.6153008 L187,47.384522 C187,47.3190082 186.994507,47.2528474 186.985875,47.1897444 L179.384961,53.9904382 C178.591923,54.6998482 177.393648,54.7009609 176.60057,53.9904382 L169.01412,47.1897444 L169.014125,47.1899051 Z" id="Mail"></path>
            </g>
        </g>
    </g>
</svg>