<?xml version="1.0" encoding="UTF-8"?>
<svg width="17px" height="20px" viewBox="0 0 17 20" version="1.1" xmlns="http://www.w3.org/2000/svg" xmlns:xlink="http://www.w3.org/1999/xlink">
    <title>EFBBCE87-2B90-4432-B331-E1C84E34E01F</title>
    <g id="Page-1" stroke="none" stroke-width="1" fill="none" fill-rule="evenodd">
        <g id="Home-Page---1" transform="translate(-832.000000, -1726.000000)" fill="#F8AE00">
            <g id="Group-3" transform="translate(175.000000, 1162.000000)">
                <g id="Group-3-Copy-2" transform="translate(657.000000, 564.000000)">
                    <path d="M14.8889272,0 C16.0535357,0 17,0.848888889 17,1.89444444 L17,1.89444444 L17,18.1055556 C17,19.15 16.0535357,20 14.8889272,20 L14.8889272,20 L2.11107278,20 C0.946464298,20 0,19.15 0,18.1055556 L0,18.1055556 L0,1.89444444 C0,0.848888889 0.946464298,0 2.11107278,0 L2.11107278,0 Z M14.4045533,1.62333333 L2.59661952,1.62333333 C2.16267679,1.62333333 1.8096585,1.94 1.8096585,2.32888889 L1.8096585,2.32888889 L1.8096585,17.67 C1.8096585,18.0588889 2.16267679,18.3755556 2.59661952,18.3755556 L2.59661952,18.3755556 L14.4045533,18.3755556 C14.8373232,18.3755556 15.1915143,18.0588889 15.1915143,17.67 L15.1915143,17.67 L15.1915143,2.32888889 C15.1915143,1.94 14.8373232,1.62333333 14.4045533,1.62333333 L14.4045533,1.62333333 Z M10.3605588,10.8221111 C10.9188203,10.8221111 11.2648017,11.1321111 11.2648017,11.6332222 C11.2648017,12.1343333 10.9188203,12.4454444 10.3605588,12.4454444 L6.64037944,12.4454444 C6.08329079,12.4454444 5.7361366,12.1343333 5.7361366,11.6332222 C5.7361366,11.1321111 6.08329079,10.8221111 6.64037944,10.8221111 L10.3605588,10.8221111 Z M12.1197861,7.55333333 C12.6780476,7.55333333 13.024029,7.86444444 13.024029,8.36555556 C13.024029,8.86666667 12.6780476,9.17666667 12.1197861,9.17666667 L4.88115212,9.17666667 C4.32406347,9.17666667 3.97690928,8.86666667 3.97690928,8.36555556 C3.97690928,7.86444444 4.32406347,7.55333333 4.88115212,7.55333333 L12.1197861,7.55333333 Z" id="Main-Menu"></path>
                </g>
            </g>
        </g>
    </g>
</svg>