<?xml version="1.0" encoding="UTF-8"?>
<svg width="17px" height="20px" viewBox="0 0 17 20" version="1.1" xmlns="http://www.w3.org/2000/svg" xmlns:xlink="http://www.w3.org/1999/xlink">
    <title>A8A58E1F-C4DE-4ABB-87AF-DCFAE5385DC1</title>
    <g id="Page-1" stroke="none" stroke-width="1" fill="none" fill-rule="evenodd">
        <g id="Stores-Detail-Page" transform="translate(-509.000000, -1148.000000)" fill="#FFFFFF">
            <g id="Group-3" transform="translate(479.000000, 1138.000000)">
                <path d="M44.8889272,10 C46.0535357,10 47,10.8488889 47,11.8944444 L47,11.8944444 L47,28.1055556 C47,29.15 46.0535357,30 44.8889272,30 L44.8889272,30 L32.1110728,30 C30.9464643,30 30,29.15 30,28.1055556 L30,28.1055556 L30,11.8944444 C30,10.8488889 30.9464643,10 32.1110728,10 L32.1110728,10 Z M44.4045533,11.6233333 L32.5966195,11.6233333 C32.1626768,11.6233333 31.8096585,11.94 31.8096585,12.3288889 L31.8096585,12.3288889 L31.8096585,27.67 C31.8096585,28.0588889 32.1626768,28.3755556 32.5966195,28.3755556 L32.5966195,28.3755556 L44.4045533,28.3755556 C44.8373232,28.3755556 45.1915143,28.0588889 45.1915143,27.67 L45.1915143,27.67 L45.1915143,12.3288889 C45.1915143,11.94 44.8373232,11.6233333 44.4045533,11.6233333 L44.4045533,11.6233333 Z M40.3605588,20.8221111 C40.9188203,20.8221111 41.2648017,21.1321111 41.2648017,21.6332222 C41.2648017,22.1343333 40.9188203,22.4454444 40.3605588,22.4454444 L36.6403794,22.4454444 C36.0832908,22.4454444 35.7361366,22.1343333 35.7361366,21.6332222 C35.7361366,21.1321111 36.0832908,20.8221111 36.6403794,20.8221111 L40.3605588,20.8221111 Z M42.1197861,17.5533333 C42.6780476,17.5533333 43.024029,17.8644444 43.024029,18.3655556 C43.024029,18.8666667 42.6780476,19.1766667 42.1197861,19.1766667 L34.8811521,19.1766667 C34.3240635,19.1766667 33.9769093,18.8666667 33.9769093,18.3655556 C33.9769093,17.8644444 34.3240635,17.5533333 34.8811521,17.5533333 L42.1197861,17.5533333 Z" id="Main-Menu"></path>
            </g>
        </g>
    </g>
</svg>