<?xml version="1.0" encoding="UTF-8"?>
<svg width="34px" height="34px" viewBox="0 0 34 34" version="1.1" xmlns="http://www.w3.org/2000/svg" xmlns:xlink="http://www.w3.org/1999/xlink">
    <title>B5A2BA1B-775F-46D6-922F-9C022E465AF1</title>
    <g id="Page-1" stroke="none" stroke-width="1" fill="none" fill-rule="evenodd">
        <g id="Stores-Detail-Page" transform="translate(-346.000000, -582.000000)" fill="#F8AE00">
            <path d="M366.159227,604.242118 L362.008395,600.078506 C361.715747,599.790797 361.560882,599.391452 361.583387,598.981907 L361.583387,591.917237 C361.583387,591.411114 361.853288,590.943444 362.291572,590.690383 C362.729857,590.437322 363.270143,590.437322 363.708428,590.690383 C364.146712,590.943444 364.416613,591.411114 364.416613,591.917237 L364.416613,598.335896 L368.241524,602.160879 L368.241524,602.161122 C368.613426,602.533023 368.758333,603.07517 368.622169,603.582831 C368.485843,604.090897 368.088764,604.487651 367.580859,604.623572 C367.072792,604.759494 366.530886,604.614101 366.159227,604.242037 L366.159227,604.242118 Z M363,584.833462 C359.242847,584.833462 355.639669,586.326167 352.982762,588.982907 C350.326097,591.639646 348.833549,595.24314 348.833549,599.000121 C348.833549,602.757022 350.326097,606.360435 352.982762,609.017255 C355.639507,611.673995 359.243009,613.166458 363,613.166458 C366.756991,613.166458 370.360331,611.673995 373.017157,609.017255 C375.673903,606.360596 377.16637,602.757022 377.16637,599.000121 C377.16637,596.513466 376.511857,594.070444 375.268567,591.91667 C374.025196,589.763139 372.236681,587.974709 370.083225,586.73126 C367.929527,585.488053 365.4865,584.833462 362.999757,584.833462 L363,584.833462 Z M363,616 C358.491271,616 354.16736,614.208899 350.979233,611.020698 C347.791025,607.83274 346,603.508597 346,598.99996 C346,594.491403 347.791025,590.167341 350.979233,586.979221 C354.167198,583.79102 358.491352,582 363,582 C367.508567,582 371.83264,583.79102 375.020767,586.979221 C378.208975,590.167179 380,594.491403 380,598.99996 C380,603.508597 378.208975,607.832659 375.020767,611.020698 C371.832802,614.208899 367.508567,616 363,616 L363,616 Z" id="Opening-Times"></path>
        </g>
    </g>
</svg>