<?xml version="1.0" encoding="UTF-8"?>
<svg width="32px" height="32px" viewBox="0 0 32 32" version="1.1" xmlns="http://www.w3.org/2000/svg" xmlns:xlink="http://www.w3.org/1999/xlink">
    <title>10AA1C98-1DBA-4502-B8DD-A7AE87BB271F</title>
    <g id="Page-1" stroke="none" stroke-width="1" fill="none" fill-rule="evenodd">
        <g id="Stores-Detail-Page" transform="translate(-1222.000000, -583.000000)" fill="#F8AE00">
            <path d="M1246.02003,612.36089 C1246.10684,612.364577 1246.19238,612.366459 1246.27447,612.366459 C1247.31215,612.366459 1248.02973,612.07366 1248.67128,611.387823 C1249.09311,610.862542 1249.5865,610.350831 1250.17918,609.82406 L1250.9153,609.089044 C1251.20147,608.803304 1251.34632,608.511054 1251.33415,608.243904 C1251.32331,608.005304 1251.18953,607.77745 1250.93643,607.56693 L1250.92795,607.559871 L1250.91994,607.552262 C1249.60378,606.294946 1248.29587,604.989156 1247.03101,603.726192 C1246.78051,603.476063 1246.52788,603.349311 1246.27997,603.349311 C1246.02813,603.349311 1245.75947,603.47771 1245.48148,603.730977 L1243.08144,606.127251 L1243.07508,606.132977 C1242.66488,606.501544 1242.19427,606.696299 1241.71431,606.696299 C1241.40724,606.696299 1241.10654,606.617315 1240.82045,606.461542 L1240.80773,606.45464 L1240.79579,606.446718 C1240.70765,606.38797 1240.61417,606.34585 1240.49579,606.292436 C1240.42565,606.260905 1240.34615,606.224982 1240.25896,606.18145 C1239.91607,606.010226 1239.56133,605.833198 1239.20061,605.593657 C1236.91118,604.164488 1234.8311,602.276631 1232.84112,599.822001 C1231.78835,598.478798 1231.02709,597.242737 1230.51069,596.038914 C1230.19003,595.291975 1230.33598,594.558527 1230.9216,593.973714 L1230.93173,593.963988 C1231.61161,593.341683 1232.24765,592.706593 1232.86272,592.092446 L1233.32068,591.63509 C1233.63207,591.32433 1233.78344,591.05365 1233.78344,590.807442 C1233.78344,590.561233 1233.63207,590.290397 1233.32076,589.979558 L1229.4935,586.158116 C1229.21503,585.879984 1228.94575,585.738958 1228.6932,585.738958 C1228.44066,585.738958 1228.17146,585.879984 1227.89291,586.158116 L1226.91524,587.134399 L1226.90817,587.140674 C1226.65797,587.362645 1226.41438,587.605951 1226.1788,587.841178 C1225.93921,588.080327 1225.69154,588.327712 1225.43035,588.560116 C1224.91881,589.073317 1224.66768,589.624403 1224.61622,590.345537 C1224.51363,591.522928 1224.74034,592.756243 1225.39822,594.607236 C1226.46756,597.416864 1228.09432,600.1108 1230.36905,602.83658 C1233.20969,606.173842 1236.65212,608.851934 1240.59941,610.794539 C1242.68562,611.75137 1244.40821,612.24912 1246.02003,612.36089 L1246.02003,612.36089 Z M1245.87864,615 L1245.86921,614.999529 C1243.85794,614.881249 1241.8224,614.291024 1239.46314,613.142105 C1235.21515,611.07871 1231.48961,608.172685 1228.39046,604.50474 C1225.86899,601.460277 1224.09495,598.500525 1222.96488,595.453865 C1222.4385,594.051914 1221.85634,592.171587 1222.03191,590.068033 C1222.15477,588.658473 1222.72294,587.443041 1223.675,586.551939 L1223.68129,586.546291 C1224.01694,586.248238 1224.33288,585.919829 1224.63853,585.602088 C1224.78826,585.446394 1224.94316,585.285524 1225.09556,585.133203 L1226.06671,584.163665 C1226.86127,583.400804 1227.78545,583 1228.74379,583 C1229.70457,583 1230.61548,583.402373 1231.37783,584.163665 L1235.20509,587.985186 C1235.99549,588.774322 1236.41332,589.701034 1236.41332,590.66516 C1236.41332,591.629286 1235.99549,592.555998 1235.20509,593.345213 L1233.1884,595.358802 C1233.56718,596.208804 1234.14156,597.090024 1234.93903,598.045522 C1236.73955,600.236923 1238.60196,601.931438 1240.63436,603.227972 L1240.64465,603.234482 L1240.65431,603.241698 C1240.75832,603.319663 1240.90898,603.390882 1241.06852,603.466258 C1241.20167,603.529163 1241.33922,603.594186 1241.47237,603.672935 L1241.58792,603.730742 C1242.17251,603.103887 1242.80784,602.473739 1243.43705,601.897554 L1243.60343,601.73135 C1244.39807,600.968567 1245.32225,600.567763 1246.28059,600.567763 C1247.24138,600.567763 1248.15228,600.970057 1248.91463,601.73135 L1252.79884,605.609736 C1253.57134,606.351419 1253.99953,607.288014 1254,608.242728 C1254.00055,609.234933 1253.56434,610.179528 1252.73844,610.974391 L1252.00656,611.70525 C1251.77389,611.966126 1251.54027,612.199314 1251.31427,612.424893 C1251.09299,612.646002 1250.86408,612.874562 1250.64178,613.124065 C1249.559,614.385068 1248.15236,615 1246.34517,615 L1245.87864,615 Z" id="Phone-Number"></path>
        </g>
    </g>
</svg>