<?xml version="1.0" encoding="UTF-8"?>
<svg width="20px" height="20px" viewBox="0 0 20 20" version="1.1" xmlns="http://www.w3.org/2000/svg" xmlns:xlink="http://www.w3.org/1999/xlink">
    <title>A8533256-971A-4013-9A7E-983B6F4469C0</title>
    <g id="Page-1" stroke="none" stroke-width="1" fill="none" fill-rule="evenodd">
        <g id="Stores" transform="translate(-1087.000000, -40.000000)" fill="#F8AE00" fill-rule="nonzero">
            <g id="Header">
                <path d="M1101.58751,53.3040801 C1102.89469,51.668848 1103.52606,49.5950383 1103.3519,47.5088969 C1103.17775,45.4227943 1102.2113,43.482573 1100.65111,42.0863917 C1099.09096,40.6904827 1097.05543,39.9449709 1094.96291,40.0031679 C1092.87028,40.0612169 1090.87902,40.9184077 1089.39881,42.3988111 C1087.91841,43.8790589 1087.06121,45.8701636 1087.00317,47.9629184 C1086.94497,50.0555564 1087.69048,52.0911646 1089.08639,53.651122 C1090.4823,55.2112739 1092.42267,56.1777472 1094.50889,56.35191 C1096.59515,56.5260573 1098.66903,55.8946597 1100.30407,54.5875243 L1105.46165,59.745109 C1105.69218,59.9678834 1106.02316,60.0523701 1106.33223,59.9677317 C1106.64147,59.8829377 1106.88292,59.641475 1106.96773,59.3322338 C1107.05237,59.0231483 1106.96788,58.6921845 1106.74511,58.4616531 L1101.58751,53.3040801 Z M1095.21076,54.5648835 C1093.52569,54.5648835 1091.90944,53.8953467 1090.718,52.7038272 C1089.52633,51.512152 1088.85695,49.8960595 1088.85695,48.2106832 C1088.85695,46.525618 1089.52633,44.9093699 1090.718,43.7179282 C1091.90952,42.526253 1093.52577,41.8568718 1095.21076,41.8568718 C1096.89598,41.8568718 1098.51207,42.526253 1099.7039,43.7179282 C1100.89542,44.9094477 1101.56495,46.5256958 1101.56495,48.2106832 C1101.56298,49.8953204 1100.89285,51.5103236 1099.70176,52.7014931 C1098.51055,53.8925458 1096.89551,54.5627051 1095.21095,54.564689 L1095.21076,54.5648835 Z" id="Search"></path>
            </g>
        </g>
    </g>
</svg>