<?xml version="1.0" encoding="UTF-8"?>
<svg width="18px" height="14px" viewBox="0 0 18 14" version="1.1" xmlns="http://www.w3.org/2000/svg" xmlns:xlink="http://www.w3.org/1999/xlink">
    <title>BE344680-D2E0-48F7-BC2D-117A7ED680EB</title>
    <g id="Page-1" stroke="none" stroke-width="1" fill="none" fill-rule="evenodd">
        <g id="News-Details" transform="translate(-1132.000000, -842.000000)" fill="#FFFFFF" fill-rule="nonzero">
            <g id="Group-3" transform="translate(1016.000000, 797.000000)">
                <path d="M134,46.657385 C133.330625,46.938462 132.617375,47.124769 131.87375,47.215231 C132.63875,46.778 133.222625,46.090923 133.497125,45.262769 C132.783875,45.669846 131.996375,45.957385 131.157125,46.117846 C130.479875,45.427538 129.514625,45 128.461625,45 C126.418625,45 124.773875,46.587385 124.773875,48.533385 C124.773875,48.813385 124.798625,49.082615 124.859375,49.338923 C121.7915,49.195692 119.076875,47.788154 117.25325,45.644 C116.934875,46.172769 116.748125,46.778 116.748125,47.429538 C116.748125,48.652923 117.40625,49.737385 118.38725,50.365231 C117.794375,50.354462 117.21275,50.189692 116.72,49.930154 C116.72,49.940923 116.72,49.954923 116.72,49.968923 C116.72,51.685538 117.999125,53.111385 119.6765,53.439846 C119.376125,53.518462 119.04875,53.556154 118.709,53.556154 C118.47275,53.556154 118.23425,53.543231 118.010375,53.495846 C118.4885,54.894769 119.84525,55.923231 121.4585,55.956615 C120.203,56.896769 118.608875,57.463231 116.883125,57.463231 C116.5805,57.463231 116.29025,57.450308 116,57.414769 C117.634625,58.423846 119.571875,59 121.661,59 C128.4515,59 132.164,53.615385 132.164,48.948 C132.164,48.791846 132.158375,48.641077 132.1505,48.491385 C132.882875,47.993846 133.49825,47.372462 134,46.657385 Z" id="Twiiter"></path>
            </g>
        </g>
    </g>
</svg>